<svg
            xmlns="http://www.w3.org/2000/svg"
            viewBox="0 0 24 24"
            stroke="white"
            fill="none"

            stroke-linecap="round"
            stroke-linejoin="round"
            className="heroLogo"
          >
          <rect width="100%" height="100%" fill="#840032ff" />
          <g transform="scale(0.8) translate(2.4 2.4)">
            <path d="m12 14-1 1" width="80%" height="80%"/>
            <path d="m13.75 18.25-1.25 1.42" />
            <path d="M17.775 5.654a15.68 15.68 0 0 0-12.121 12.12" width="80%" height="80%"/>
            <path d="M18.8 9.3a1 1 0 0 0 2.1 7.7" width="80%" height="80%"/>
            <path d="M21.964 20.732a1 1 0 0 1-1.232 1.232l-18-5a1 1 0 0 1-.695-1.232A19.68 19.68 0 0 1 15.732 2.037a1 1 0 0 1 1.232.695z" stroke-width="2" width="80%" height="80%"/>
            </g>
          </svg>
